<svg id="ic_like_off" xmlns="http://www.w3.org/2000/svg" width="20" height="20" viewBox="0 0 20 20">
  <rect id="사각형_17669" data-name="사각형 17669" width="20" height="20" fill="none"/>
  <path id="패스_19955" data-name="패스 19955" d="M184,184.46l-7.9-7.9c-.034-.031-.082-.08-.131-.132l-.155-.182A5.243,5.243,0,1,1,184,169.711a5.244,5.244,0,1,1,8.18,6.542l-.1.122c-.094.1-.142.15-.194.2Zm-4.252-14.92a3.256,3.256,0,0,0-3.252,3.252,3.211,3.211,0,0,0,.832,2.148l.164.185L184,181.632l6.672-6.692a3.211,3.211,0,0,0,.832-2.148,3.252,3.252,0,1,0-6.5,0v.812h-2v-.812A3.256,3.256,0,0,0,179.748,169.54Z" transform="translate(-174 -166)"/>
</svg>
