<svg id="ic_twitter" xmlns="http://www.w3.org/2000/svg" width="80" height="80" viewBox="0 0 80 80">
  <circle id="타원_1785" data-name="타원 1785" cx="40" cy="40" r="40" fill="#1da1f2"/>
  <path id="패스_28517" data-name="패스 28517" d="M105.271,155.261c18.924,0,29.272-15.678,29.272-29.272,0-.446-.009-.889-.029-1.33a20.932,20.932,0,0,0,5.132-5.327,20.539,20.539,0,0,1-5.908,1.62,10.325,10.325,0,0,0,4.524-5.691,20.617,20.617,0,0,1-6.533,2.5A10.3,10.3,0,0,0,114.2,127.14,29.209,29.209,0,0,1,92.99,116.391a10.3,10.3,0,0,0,3.185,13.735,10.214,10.214,0,0,1-4.66-1.287c0,.043,0,.086,0,.131a10.293,10.293,0,0,0,8.254,10.086,10.269,10.269,0,0,1-4.646.176,10.3,10.3,0,0,0,9.611,7.146,20.644,20.644,0,0,1-12.778,4.4,20.954,20.954,0,0,1-2.454-.143,29.127,29.127,0,0,0,15.771,4.621" transform="translate(-71.471 -91.631)" fill="#fff"/>
</svg>
