<svg id="ic_share12" xmlns="http://www.w3.org/2000/svg" width="20" height="20" viewBox="0 0 20 20">
  <rect id="사각형_19066" data-name="사각형 19066" width="20" height="20" fill="none"/>
  <rect id="사각형_19067" data-name="사각형 19067" width="9.218" height="1.5" transform="matrix(0.895, -0.447, 0.447, 0.895, 5.448, 8.455)"/>
  <path id="패스_28511" data-name="패스 28511" d="M253.615,154.671l-7.926-4,.67-1.342,7.926,4Z" transform="translate(-240 -139)"/>
  <path id="패스_28512" data-name="패스 28512" d="M256,146.25a3.25,3.25,0,1,1,3.25-3.25A3.254,3.254,0,0,1,256,146.25Zm0-5a1.75,1.75,0,1,0,1.75,1.75A1.752,1.752,0,0,0,256,141.25Z" transform="translate(-240 -139)"/>
  <path id="패스_28513" data-name="패스 28513" d="M256,158.25a3.25,3.25,0,1,1,3.25-3.25A3.254,3.254,0,0,1,256,158.25Zm0-5a1.75,1.75,0,1,0,1.75,1.75A1.752,1.752,0,0,0,256,153.25Z" transform="translate(-240 -139)"/>
  <path id="패스_28514" data-name="패스 28514" d="M244,152.25a3.25,3.25,0,1,1,3.25-3.25A3.254,3.254,0,0,1,244,152.25Zm0-5a1.75,1.75,0,1,0,1.75,1.75A1.752,1.752,0,0,0,244,147.25Z" transform="translate(-240 -139)"/>
</svg>
