<svg id="ic_linkedin" xmlns="http://www.w3.org/2000/svg" width="80" height="80" viewBox="0 0 80 80">
  <rect id="사각형_19104" data-name="사각형 19104" width="80" height="80" rx="4" fill="#2867b2"/>
  <path id="패스_28518" data-name="패스 28518" d="M574.5,157.533c0,3.327-2.456,6.021-6.5,6.021a5.933,5.933,0,0,1-6.258-6.021c0-3.406,2.535-6.021,6.417-6.021A5.956,5.956,0,0,1,574.5,157.533ZM562.063,207.05V168.308h12.043V207.05Z" transform="translate(-550.278 -140.983)" fill="#fff"/>
  <path id="패스_28519" data-name="패스 28519" d="M604.061,199.485c0-4.832-.158-8.872-.316-12.359H614.2l.555,5.387h.237a13.915,13.915,0,0,1,11.964-6.259c7.923,0,13.865,5.309,13.865,16.717v22.9H628.781V204.4c0-4.991-1.744-8.4-6.1-8.4a6.612,6.612,0,0,0-6.179,4.515,8.677,8.677,0,0,0-.4,3.011v22.342H604.061Z" transform="translate(-572.11 -159.801)" fill="#fff"/>
</svg>
