<svg id="ic_myvisit_22" xmlns="http://www.w3.org/2000/svg" width="22" height="22" viewBox="0 0 22 22">
  <rect id="사각형_18330" data-name="사각형 18330" width="22" height="22" fill="none"/>
  <path id="패스_28417" data-name="패스 28417" d="M713.536,378.91v5L716,386.29" transform="translate(-702 -372.527)" fill="none" stroke="#000" stroke-linecap="round" stroke-width="2"/>
  <path id="패스_28419" data-name="패스 28419" d="M704.813,384.057a9,9,0,1,1,15.348,5.833c-3.244,3.245-7.86,3.453-11.865.652l-.424-.329" transform="translate(-702 -372.527)" fill="none" stroke="#000" stroke-linecap="round" stroke-miterlimit="10" stroke-width="2"/>
  <path id="패스_28420" data-name="패스 28420" d="M704.558,385.937l-1.895-2.527a.552.552,0,0,1,.442-.884h3.79a.552.552,0,0,1,.442.884l-1.895,2.527A.552.552,0,0,1,704.558,385.937Z" transform="translate(-702 -372.527)"/>
</svg>
