<?xml version="1.0" encoding="utf-8"?>
<!-- Generator: Adobe Illustrator 24.3.0, SVG Export Plug-In . SVG Version: 6.00 Build 0)  -->
<svg version="1.1" id="btn_try_4030" xmlns="http://www.w3.org/2000/svg" xmlns:xlink="http://www.w3.org/1999/xlink" x="0px"
	 y="0px" viewBox="0 0 60 56" style="enable-background:new 0 0 60 56;" xml:space="preserve">
<style type="text/css">
	.st0{enable-background:new    ;}
	.st1{fill:#FFFFFF;}
	.st2{fill:none;}
</style>
<g class="st0">
	<path class="st1" d="M20.9,24.6h-2.7v-1.8h7.4v1.8h-2.7V33H21L20.9,24.6L20.9,24.6z"/>
	<path class="st1" d="M26.5,33V22.8h3.3c0.6,0,1.1,0.1,1.6,0.3c0.5,0.2,0.9,0.4,1.2,0.7c0.3,0.3,0.6,0.7,0.7,1.1
		c0.2,0.4,0.3,0.9,0.3,1.4c0,0.6-0.1,1.2-0.4,1.7c-0.3,0.5-0.7,1-1.3,1.3l2,3.7h-2.2l-1.6-3.1h-1.7V33H26.5z M29.6,28.1
		c0.4,0,0.7,0,1-0.1s0.5-0.2,0.6-0.4c0.2-0.2,0.3-0.4,0.3-0.6c0.1-0.2,0.1-0.5,0.1-0.7c0-0.5-0.2-0.9-0.5-1.2
		c-0.3-0.3-0.9-0.5-1.6-0.5h-1.2v3.6L29.6,28.1L29.6,28.1z"/>
	<path class="st1" d="M36.8,28.2l-3.2-5.4h2.1l2.1,3.5l2.1-3.5H42l-3.3,5.4V33h-1.9V28.2z"/>
</g>
<g id="패스_19878" transform="translate(-175.409 -239.503)">
	<path id="패스_28421" class="st2" d="M190.4,252.5h30c2.8,0,5,2.2,5,5v20c0,2.8-2.2,5-5,5h-30c-2.8,0-5-2.2-5-5v-20
		C185.4,254.7,187.6,252.5,190.4,252.5z"/>
	<path id="패스_28422" class="st1" d="M190.4,254c-1.9,0-3.5,1.6-3.5,3.5v20c0,1.9,1.6,3.5,3.5,3.5h30c1.9,0,3.5-1.6,3.5-3.5v-20
		c0-1.9-1.6-3.5-3.5-3.5H190.4 M190.4,252.5h30c2.8,0,5,2.2,5,5v20c0,2.8-2.2,5-5,5h-30c-2.8,0-5-2.2-5-5v-20
		C185.4,254.7,187.6,252.5,190.4,252.5z"/>
</g>
</svg>
