<?xml version="1.0" encoding="utf-8"?>
<!-- Generator: Adobe Illustrator 24.2.3, SVG Export Plug-In . SVG Version: 6.00 Build 0)  -->
<svg version="1.1" id="Layer_1" xmlns="http://www.w3.org/2000/svg" xmlns:xlink="http://www.w3.org/1999/xlink" x="0px" y="0px"
	 viewBox="0 0 60 56" style="enable-background:new 0 0 60 56;" xml:space="preserve">
<style type="text/css">
	.st0{fill:none;}
	.st1{fill:#FFFFFF;}
	.st2{fill:none;stroke:#FFFFFF;stroke-width:1.5;}
</style>
<g id="그룹_104182" transform="translate(-1489 -1261)">
	<rect id="사각형_16379" x="1501" y="1271" class="st0" width="36" height="36"/>
	<g id="빼기_3" transform="translate(1491.992 1261)">
		<path class="st1" d="M13,23.8l-0.4,0c0.3-3.4,1.8-6.6,4.2-9.1c2.7-2.7,6.4-4.2,10.3-4.2c3.9,0,7.5,1.5,10.3,4.2
			c2.4,2.4,3.9,5.6,4.2,9.1l-0.5,0c-0.3-3.3-1.7-6.4-4.1-8.7C34.2,12.4,30.7,11,27,11c-3.7,0-7.3,1.5-9.9,4.1
			C14.7,17.4,13.3,20.5,13,23.8z"/>
		<path class="st1" d="M13.5,24.3L13.5,24.3l-1.5,0c0.2-3.7,1.7-7.3,4.4-9.9C19.2,11.6,23,10,27,10c4,0,7.8,1.6,10.6,4.4
			c2.7,2.7,4.2,6.2,4.4,9.9l-1.5,0c-0.2-3.4-1.6-6.5-3.9-8.9c-2.5-2.5-5.9-4-9.5-4s-7,1.4-9.5,4C15,17.8,13.6,20.9,13.5,24.3
			L13.5,24.3z"/>
	</g>
	<g id="타원_1720" transform="translate(1503 1288)">
		<circle class="st0" cx="16" cy="14" r="4"/>
		<circle class="st2" cx="16" cy="14" r="3.3"/>
	</g>
	<path id="패스_19815" class="st2" d="M1533.2,1290v4.8c0,8.4-11.2,7.7-11.2,7.7"/>
	<g id="패스_19879" transform="translate(1512.041 1274.721)">
		<path class="st0" d="M13.7,9h6.6c0.9,0,1.7,0.7,1.7,1.7v6.6c0,2.8-2.2,5-5,5l0,0h-3.3c-0.9,0-1.7-0.7-1.7-1.7c0,0,0,0,0,0v-10
			C12,9.7,12.7,9,13.7,9L13.7,9z"/>
		<path class="st1" d="M13.7,10.5c-0.1,0-0.2,0.1-0.2,0.2v10c0,0.1,0.1,0.2,0.2,0.2H17c1.9,0,3.5-1.6,3.5-3.5v-6.6
			c0-0.1-0.1-0.2-0.2-0.2H13.7 M13.7,9h6.6c0.9,0,1.7,0.7,1.7,1.7v6.6c0,2.8-2.2,5-5,5h-3.3c-0.9,0-1.7-0.7-1.7-1.7v-10
			C12,9.7,12.7,9,13.7,9z"/>
	</g>
	<g id="패스_19880" transform="translate(1492 1274.721)">
		<path class="st0" d="M20.3,9h-6.6C12.7,9,12,9.7,12,10.7c0,0,0,0,0,0v6.6c0,2.7,2.2,5,5,5c0,0,0,0,0,0h3.3c0.9,0,1.7-0.7,1.7-1.7
			v-10C22,9.7,21.2,9,20.3,9z"/>
		<path class="st1" d="M13.7,10.5c-0.1,0-0.2,0.1-0.2,0.2v6.6c0,1.9,1.6,3.5,3.5,3.5h3.3c0.1,0,0.2-0.1,0.2-0.2v-10
			c0-0.1-0.1-0.2-0.2-0.2H13.7 M13.7,9h6.6c0.9,0,1.7,0.7,1.7,1.7v10c0,0.9-0.7,1.7-1.7,1.7H17c-2.8,0-5-2.2-5-5v-6.6
			C12,9.7,12.7,9,13.7,9z"/>
	</g>
</g>
</svg>
