<svg id="ic_kakaotalk" xmlns="http://www.w3.org/2000/svg" width="80" height="80" viewBox="0 0 80 80">
  <path id="패스_28495" data-name="패스 28495" d="M40,0A40,40,0,1,1,0,40,40,40,0,0,1,40,0Z" transform="translate(0.001 -0.002)" fill="#fae300" fill-rule="evenodd"/>
  <path id="패스_28499" data-name="패스 28499" d="M84.431,77.391c-16.2,0-29.333,10.273-29.333,22.947,0,8.249,5.564,15.478,13.916,19.523-.613,2.267-2.221,8.212-2.544,9.484-.4,1.579.585,1.557,1.228,1.132.5-.332,8.038-5.4,11.289-7.587a37.537,37.537,0,0,0,5.445.4c16.2,0,29.333-10.276,29.333-22.948S100.632,77.391,84.431,77.391" transform="translate(-44.43 -61.388)" fill="#391b1b"/>
  <path id="패스_28500" data-name="패스 28500" d="M114,185.048H105.8a1.4,1.4,0,1,0,0,2.792h2.668v9.832a1.366,1.366,0,0,0,1.362,1.362h.3a1.364,1.364,0,0,0,1.359-1.362V187.84H114a1.4,1.4,0,1,0,0-2.792Z" transform="translate(-86.565 -152.665)" fill="#fae300"/>
  <path id="패스_28501" data-name="패스 28501" d="M265.878,195.251h-3.816V185.209a1.514,1.514,0,1,0-3.028,0v10.824a1.482,1.482,0,0,0,.024.242,1.282,1.282,0,0,0-.024.242,1.266,1.266,0,0,0,1.267,1.268h5.578a1.267,1.267,0,0,0,0-2.534Z" transform="translate(-217.023 -151.507)" fill="#fae300"/>
  <path id="패스_28502" data-name="패스 28502" d="M330.732,195.712l-4.253-5.586,3.843-3.844a1.333,1.333,0,1,0-1.886-1.885l-4.757,4.757v-3.945a1.514,1.514,0,1,0-3.029,0v11.156a1.514,1.514,0,1,0,3.029,0v-3.442l.865-.864,4.023,5.279a1.354,1.354,0,1,0,2.165-1.627Z" transform="translate(-268.839 -151.507)" fill="#fae300"/>
  <path id="패스_28503" data-name="패스 28503" d="M179.609,196.074l-4.09-11.19-.014-.013a2.011,2.011,0,0,0-1.917-1.178A1.952,1.952,0,0,0,171.6,185.1a1.876,1.876,0,0,0-.078.184L167.5,196.074a1.357,1.357,0,1,0,2.56.9l.7-1.987h5.6l.7,1.987a1.357,1.357,0,1,0,2.56-.9Zm-7.965-3.623,1.881-5.368c.021,0,.04.006.061.006l1.88,5.362Z" transform="translate(-139.638 -151.507)" fill="#fae300"/>
</svg>
